# File produced by Open Asset Import Library (http://www.assimp.sf.net)
# (assimp v5.4.0)

mtllib Lahne YNC High Rise Building-2.mtl

# 16 vertex positions
v 300 -900 4320
v -300 -900 -1.1860741e-07
v 300 -900 -3.99371629e-07
v -300 -900 4320
v 900 3.34293873e-08 6.43624531e-08
v 300 -4.60069714e-07 4320
v 300 -3.34366632e-08 -1.67031029e-08
v 900 -3.93225491e-07 4320
v -900 900 7.24761406e-08
v 900 900 4320
v 900 900 2.95077864e-08
v -900 900 4320
v -900 3.34439392e-08 -5.04390982e-08
v -900 -3.93210939e-07 4320
v -300 -3.93189111e-07 4320
v -300 3.34366632e-08 1.67031029e-08

# 0 UV coordinates

# 10 vertex normals
vn -1.11431288e-10 -1 -9.87643856e-11
vn 1.1142523e-10 -1 -9.87601737e-11
vn -4.04220047e-15 1 9.87576479e-11
vn -1 -3.233758e-14 -7.57979651e-11
vn -6.11103876e-11 -1.02630918e-10 1
vn 1.21266073e-14 -1 -9.8759334e-11
vn 1 1.61687917e-14 7.58013305e-11
vn -1 1.13968145e-20 -7.58046959e-11
vn 1 1.11419166e-10 9.90170237e-11
vn -8.22257019e-12 1.72211939e-10 -1

# Mesh '' with 28 faces
usemtl DefaultMaterial
f  1//1 2//1 3//1
f  2//1 1//1 4//1
f  5//2 6//2 7//2
f  6//2 5//2 8//2
f  9//3 10//3 11//3
f  10//3 9//3 12//3
f  12//4 13//4 14//4
f  13//4 12//4 9//4
f  1//5 15//5 4//5
f  15//5 1//5 6//5
f  10//5 14//5 15//5
f  10//5 15//5 6//5
f  10//5 6//5 8//5
f  14//5 10//5 12//5
f  16//6 14//6 13//6
f  14//6 16//6 15//6
f  5//7 10//7 8//7
f  10//7 5//7 11//7
f  15//8 2//8 4//8
f  2//8 15//8 16//8
f  3//9 6//9 1//9
f  6//9 3//9 7//9
f  11//10 13//10 9//10
f  13//10 11//10 16//10
f  16//10 11//10 2//10
f  2//10 11//10 7//10
f  7//10 11//10 5//10
f  3//10 2//10 7//10

