# File produced by Open Asset Import Library (http://www.assimp.sf.net)
# (assimp v5.4.0)

mtllib Pulley Stuff.mtl

# 49 vertex positions
v 6.5 -0.5 6
v 6 0.5 6
v 6 -0.5 6
v 6.5 0.5 6
v 0.5 -0.5 -6
v 0.5 -0.5 -6.5
v 6 -0.5 -6
v 6.5 -0.5 -6.5
v 0.5 -0.5 12
v 0.5 -0.5 11.5
v -0.5 -0.5 11.5
v -0.5 -0.5 12
v -6.5 -0.5 6
v -6 -0.5 6
v -6.5 -0.5 -6.5
v -6 -0.5 -6
v -0.5 -0.5 -6
v -0.5 -0.5 -6.5
v 6.5 0.5 -6.5
v -0.5 0.5 -6
v -0.5 0.5 -6.5
v -6 0.5 -6
v -6.5 0.5 -6.5
v -6.5 0.5 6
v -6 0.5 6
v -0.5 0.5 12
v -0.5 0.5 11.5
v 0.5 0.5 11.5
v 0.5 0.5 12
v 6 0.5 -6
v 0.5 0.5 -6
v 0.5 0.5 -6.5
v 0.5 -6.5 6
v -0.5 -6 6
v -0.5 -6.5 6
v 0.5 -6 6
v 0.5 -6.5 -6.5
v 0.5 -6 -6
v 0.5 6 6
v 0.5 6.5 6
v 0.5 6 -6
v 0.5 6.5 -6.5
v -0.5 -6.5 -6.5
v -0.5 -6 -6
v -0.5 6.5 6
v -0.5 6 6
v -0.5 6 -6
v -0.5 6.5 -6.5
v -6 0 -6

# 0 UV coordinates

# 16 vertex normals
vn 0 0 1
vn 0 -1 0
vn 1 0 0
vn -3.06347782e-16 1 7.96800854e-19
vn 0 1 0
vn 3.06347782e-16 1 7.96800854e-19
vn -1 0 0
vn 0 0 -1
vn 0.707106769 0 0.707106769
vn -0.707106769 0 -0.707106769
vn 0 -0.707106769 -0.707106769
vn 0 0.707106769 0.707106769
vn 0 0.707106769 -0.707106769
vn 0 -0.707106769 0.707106769
vn 0.707106769 0 -0.707106769
vn -0.707106769 0 0.707106769

# Mesh '' with 122 faces
usemtl DefaultMaterial
f  1//1 2//1 3//1
f  2//1 1//1 4//1
f  5//2 6//2 7//2
f  8//2 7//2 6//2
f  7//2 8//2 1//2
f  7//2 1//2 3//2
f  9//2 3//2 1//2
f  3//2 9//2 10//2
f  9//2 11//2 10//2
f  11//2 9//2 12//2
f  11//2 13//2 14//2
f  13//2 11//2 12//2
f  15//2 16//2 13//2
f  13//2 16//2 14//2
f  17//2 15//2 18//2
f  15//2 17//2 16//2
f  19//3 1//3 8//3
f  1//3 19//3 4//3
f  20//4 21//4 22//4
f  23//4 22//4 21//4
f  22//4 23//4 24//4
f  22//4 24//4 25//4
f  26//5 25//4 24//4
f  25//4 26//5 27//5
f  26//5 28//5 27//5
f  28//5 26//5 29//5
f  28//5 4//6 2//6
f  4//6 28//5 29//5
f  19//6 30//6 4//6
f  4//6 30//6 2//6
f  31//6 19//6 32//6
f  19//6 31//6 30//6
f  33//1 34//1 35//1
f  34//1 33//1 36//1
f  37//3 38//3 33//3
f  38//3 37//3 6//3
f  38//3 6//3 5//3
f  36//3 33//3 38//3
f  36//3 9//3 33//3
f  9//3 36//3 10//3
f  28//3 9//3 10//3
f  9//3 28//3 29//3
f  39//3 29//3 28//3
f  29//3 39//3 40//3
f  41//3 42//3 39//3
f  39//3 42//3 40//3
f  31//3 42//3 41//3
f  42//3 31//3 32//3
f  34//7 43//7 35//7
f  43//7 34//7 44//7
f  12//7 34//7 35//7
f  34//7 12//7 11//7
f  43//7 44//7 18//7
f  18//7 44//7 17//7
f  26//7 11//7 12//7
f  11//7 26//7 27//7
f  45//7 27//7 26//7
f  27//7 45//7 46//7
f  45//7 47//7 46//7
f  48//7 47//7 45//7
f  47//7 21//7 20//7
f  21//7 47//7 48//7
f  33//2 43//2 37//2
f  43//2 33//2 35//2
f  14//1 24//1 13//1
f  24//1 14//1 25//1
f  24//7 15//7 13//7
f  15//7 24//7 23//7
f  39//1 45//1 46//1
f  45//1 39//1 40//1
f  45//5 42//5 48//5
f  42//5 45//5 40//5
f  19//8 6//8 32//8
f  6//8 19//8 8//8
f  37//8 32//8 6//8
f  37//8 42//8 32//8
f  43//8 42//8 37//8
f  42//8 21//8 48//8
f  21//8 42//8 18//8
f  18//8 42//8 43//8
f  21//8 15//8 23//8
f  15//8 21//8 18//8
f  7//1 31//1 5//1
f  31//1 7//1 30//1
f  41//1 5//1 31//1
f  41//1 38//1 5//1
f  47//1 38//1 41//1
f  38//1 17//1 44//1
f  17//1 38//1 20//1
f  20//1 38//1 47//1
f  17//1 49//1 16//1
f  49//1 17//1 22//1
f  22//1 17//1 20//1
f  2//7 7//7 3//7
f  7//7 2//7 30//7
f  39//2 47//2 41//2
f  47//2 39//2 46//2
f  49//3 14//3 16//3
f  14//3 49//3 25//3
f  25//3 49//3 22//3
f  34//5 38//5 44//5
f  38//5 34//5 36//5
f  9//1 26//1 12//1
f  26//1 9//1 29//1
f  4//9 9//9 1//9
f  9//9 4//9 29//9
f  2//10 10//10 28//10
f  10//10 2//10 3//10
f  39//11 27//11 46//11
f  27//11 39//11 28//11
f  29//12 45//12 26//12
f  45//12 29//12 40//12
f  28//8 11//8 27//8
f  11//8 28//8 10//8
f  10//13 34//13 11//13
f  34//13 10//13 36//13
f  33//14 12//14 35//14
f  12//14 33//14 9//14
f  27//15 14//15 25//15
f  14//15 27//15 11//15
f  26//16 13//16 12//16
f  13//16 26//16 24//16

