# File produced by Open Asset Import Library (http://www.assimp.sf.net)
# (assimp v5.4.0)

mtllib Stillgram Dorm-3.mtl

# 405 vertex positions
v -150 -300 540
v -600 300 540
v -600 -300 540
v -150 300 540
v 150 -450 540
v -150 -450 540
v 150 -300 540
v 150 300 540
v -150 450 540
v 600 -300 540
v 600 300 540
v 150 450 540
v -150 -300 0
v -195 -300 54
v -600 -300 0
v -150 -300 180
v -195 -300 162
v -549 -300 54
v -243 -300 54
v -600 -300 180
v -549 -300 162
v -195 -300 234
v -549 -300 234
v -600 -300 360
v -501 -300 162
v -474 -300 162
v -501 -300 54
v -426 -300 162
v -474 -300 54
v -426 -300 54
v -273 -300 54
v -321 -300 54
v -351 -300 54
v -399 -300 54
v -399 -300 162
v -351 -300 162
v -321 -300 162
v -273 -300 162
v -243 -300 162
v -150 -300 360
v -195 -300 342
v -243 -300 234
v -243 -300 342
v -273 -300 342
v -273 -300 234
v -321 -300 234
v -351 -300 234
v -321 -300 342
v -399 -300 234
v -351 -300 342
v -399 -300 342
v -426 -300 342
v -426 -300 234
v -474 -300 234
v -501 -300 234
v -549 -300 342
v -474 -300 342
v -501 -300 342
v -195 -300 414
v -549 -300 414
v -195 -300 522
v -243 -300 414
v -243 -300 522
v -273 -300 522
v -273 -300 414
v -321 -300 414
v -351 -300 414
v -321 -300 522
v -399 -300 414
v -351 -300 522
v -399 -300 522
v -426 -300 522
v -426 -300 414
v -474 -300 414
v -501 -300 414
v -549 -300 522
v -474 -300 522
v -501 -300 522
v -150 -450 0
v -150 -450 180
v -150 -450 360
v 150 -450 0
v 99 -450 54
v 150 -450 180
v 99 -450 162
v -99 -450 54
v 51 -450 54
v 24 -450 54
v -24 -450 54
v -51 -450 54
v -99 -450 162
v 51 -450 162
v 24 -450 162
v -24 -450 162
v -51 -450 162
v 99 -450 234
v 150 -450 360
v 99 -450 342
v -99 -450 234
v 51 -450 234
v 51 -450 342
v 24 -450 342
v 24 -450 234
v -24 -450 234
v -51 -450 234
v -24 -450 342
v -51 -450 342
v -99 -450 342
v 99 -450 414
v -99 -450 414
v 99 -450 522
v 51 -450 414
v 51 -450 522
v 24 -450 522
v 24 -450 414
v -24 -450 414
v -51 -450 414
v -24 -450 522
v -51 -450 522
v -99 -450 522
v 150 -300 0
v 150 -300 180
v 150 -300 360
v 600 -300 0
v 555 -300 54
v 600 -300 180
v 555 -300 162
v 201 -300 54
v 507 -300 54
v 201 -300 162
v 555 -300 234
v 201 -300 234
v 249 -300 162
v 276 -300 162
v 249 -300 54
v 324 -300 162
v 276 -300 54
v 324 -300 54
v 477 -300 54
v 429 -300 54
v 399 -300 54
v 351 -300 54
v 351 -300 162
v 399 -300 162
v 429 -300 162
v 477 -300 162
v 507 -300 162
v 600 -300 360
v 555 -300 342
v 507 -300 234
v 507 -300 342
v 477 -300 342
v 477 -300 234
v 429 -300 234
v 399 -300 234
v 429 -300 342
v 351 -300 234
v 399 -300 342
v 351 -300 342
v 324 -300 342
v 324 -300 234
v 276 -300 234
v 249 -300 234
v 201 -300 342
v 276 -300 342
v 249 -300 342
v 555 -300 414
v 201 -300 414
v 555 -300 522
v 507 -300 414
v 507 -300 522
v 477 -300 522
v 477 -300 414
v 429 -300 414
v 399 -300 414
v 429 -300 522
v 351 -300 414
v 399 -300 522
v 351 -300 522
v 324 -300 522
v 324 -300 414
v 276 -300 414
v 249 -300 414
v 201 -300 522
v 276 -300 522
v 249 -300 522
v 600 300 0
v 600 300 180
v 600 300 360
v 150 300 0
v 195 300 54
v 150 300 180
v 195 300 162
v 549 300 54
v 243 300 54
v 549 300 162
v 195 300 234
v 549 300 234
v 501 300 162
v 474 300 162
v 501 300 54
v 426 300 162
v 474 300 54
v 426 300 54
v 273 300 54
v 321 300 54
v 351 300 54
v 399 300 54
v 399 300 162
v 351 300 162
v 321 300 162
v 273 300 162
v 243 300 162
v 150 300 360
v 195 300 342
v 243 300 234
v 243 300 342
v 273 300 342
v 273 300 234
v 321 300 234
v 351 300 234
v 321 300 342
v 399 300 234
v 351 300 342
v 399 300 342
v 426 300 342
v 426 300 234
v 474 300 234
v 501 300 234
v 549 300 342
v 474 300 342
v 501 300 342
v 195 300 414
v 549 300 414
v 195 300 522
v 243 300 414
v 243 300 522
v 273 300 522
v 273 300 414
v 321 300 414
v 351 300 414
v 321 300 522
v 399 300 414
v 351 300 522
v 399 300 522
v 426 300 522
v 426 300 414
v 474 300 414
v 501 300 414
v 549 300 522
v 474 300 522
v 501 300 522
v -600 300 0
v -555 300 54
v -150 300 0
v -600 300 180
v -555 300 162
v -201 300 54
v -507 300 54
v -150 300 180
v -201 300 162
v -555 300 234
v -201 300 234
v -150 300 360
v -249 300 162
v -276 300 162
v -249 300 54
v -324 300 162
v -276 300 54
v -324 300 54
v -477 300 54
v -429 300 54
v -399 300 54
v -351 300 54
v -351 300 162
v -399 300 162
v -429 300 162
v -477 300 162
v -507 300 162
v -600 300 360
v -555 300 342
v -507 300 234
v -507 300 342
v -477 300 342
v -477 300 234
v -429 300 234
v -399 300 234
v -429 300 342
v -351 300 234
v -399 300 342
v -351 300 342
v -324 300 342
v -324 300 234
v -276 300 234
v -249 300 234
v -201 300 342
v -276 300 342
v -249 300 342
v -555 300 414
v -201 300 414
v -555 300 522
v -507 300 414
v -507 300 522
v -477 300 522
v -477 300 414
v -429 300 414
v -399 300 414
v -429 300 522
v -351 300 414
v -399 300 522
v -351 300 522
v -324 300 522
v -324 300 414
v -276 300 414
v -249 300 414
v -201 300 522
v -276 300 522
v -249 300 522
v 0 300 720
v 0 -300 720
v 0 -9.09494702e-13 720
v 480 -9.09494702e-13 720
v -480 -9.09494702e-13 720
v -150 450 180
v -99 450 234
v 150 450 180
v -150 450 360
v -99 450 54
v -150 450 0
v -99 450 162
v -51 450 162
v -24 450 162
v 24 450 162
v 51 450 162
v 99 450 162
v 150 450 0
v 99 450 54
v -51 450 54
v -24 450 54
v 24 450 54
v 51 450 54
v 99 450 234
v 150 450 360
v 99 450 342
v -99 450 414
v 99 450 414
v 51 450 342
v 24 450 342
v 51 450 234
v -24 450 342
v 24 450 234
v -24 450 234
v -51 450 234
v -51 450 342
v -99 450 342
v -99 450 522
v -51 450 414
v -51 450 522
v -24 450 522
v -24 450 414
v 24 450 414
v 51 450 414
v 99 450 522
v 24 450 522
v 51 450 522
v -600 240 0
v -600 240 180
v -600 204 180
v -600 240 360
v -600 -240 360
v -600 -204 324
v -600 -240 180
v -600 -204 180
v -600 -240 0
v -600 -36 324
v -600 -36 180
v -600 -9.09494702e-13 324
v -600 -24 306
v -600 -24 198
v -600 -9.09494702e-13 180
v -600 -12 306
v -600 -12 198
v -600 36 324
v -600 12 306
v -600 12 198
v -600 36 180
v -600 24 306
v -600 24 198
v -600 204 324
v -720 -240 0
v -720 -240 180
v -720 -240 360
v -720 240 360
v -720 240 180
v -720 240 0
v -720 204 180
v -720 -60 180
v -720 -204 180
v -720 60 180
v -720 -60 0
v -720 60 0
v -720 -204 324
v -720 204 324
v -900 -60 0
v -900 60 0

# 0 UV coordinates

# 21 vertex normals
vn 0 0 1
vn 0 -1 0
vn -1 0 0
vn 1 0 0
vn 0 1 0
vn 5.1755049e-18 0.768221259 0.640184402
vn -0.768221259 0 0.640184402
vn -0.768221259 -1.00498342e-16 0.640184402
vn 5.1755049e-18 -0.768221259 0.640184402
vn 2.09894251e-17 -0.51449573 0.857492924
vn 0 -0.51449573 0.857492924
vn 0.832050323 0 0.554700196
vn -0.832050323 0 0.554700196
vn 0 0.51449573 0.857492924
vn 0.768221259 0 0.640184402
vn 0.768221259 1.00498342e-16 0.640184402
vn 0.768221259 -1.00498342e-16 0.640184402
vn 0 0.51449573 -0.857492924
vn 0 -0.51449573 -0.857492924
vn 0 0 -1
vn -0.707106769 0 0.707106769

# Mesh '' with 700 faces
usemtl DefaultMaterial
f  1//1 2//1 3//1
f  2//1 1//1 4//1
f  5//1 1//1 6//1
f  1//1 5//1 7//1
f  7//1 4//1 1//1
f  4//1 7//1 8//1
f  8//1 9//1 4//1
f  10//1 8//1 7//1
f  8//1 10//1 11//1
f  9//1 8//1 12//1
f  13//2 14//2 15//2
f  14//2 13//2 16//2
f  14//2 16//2 17//2
f  18//2 15//2 14//2
f  18//2 14//2 19//2
f  15//2 18//2 20//2
f  20//2 18//2 21//2
f  20//2 21//2 16//2
f  16//2 22//2 20//2
f  20//2 23//2 24//2
f  23//2 20//2 22//2
f  25//2 16//2 21//2
f  26//2 16//2 25//2
f  27//2 26//2 25//2
f  28//2 16//2 26//2
f  26//2 27//2 29//2
f  18//2 29//2 27//2
f  18//2 30//2 29//2
f  18//2 19//2 31//2
f  18//2 31//2 32//2
f  18//2 32//2 33//2
f  18//2 33//2 34//2
f  18//2 34//2 30//2
f  35//2 30//2 34//2
f  30//2 35//2 28//2
f  36//2 16//2 35//2
f  35//2 16//2 28//2
f  37//2 16//2 36//2
f  33//2 37//2 36//2
f  37//2 33//2 32//2
f  38//2 16//2 37//2
f  39//2 16//2 38//2
f  31//2 39//2 38//2
f  39//2 31//2 19//2
f  17//2 16//2 39//2
f  22//2 16//2 40//2
f  22//2 40//2 41//2
f  23//2 22//2 42//2
f  41//2 40//2 43//2
f  43//2 40//2 44//2
f  43//2 45//2 42//2
f  45//2 43//2 44//2
f  23//2 42//2 45//2
f  23//2 45//2 46//2
f  23//2 46//2 47//2
f  48//2 47//2 46//2
f  23//2 47//2 49//2
f  47//2 48//2 50//2
f  44//2 40//2 48//2
f  48//2 40//2 50//2
f  50//2 40//2 51//2
f  51//2 40//2 52//2
f  51//2 53//2 49//2
f  53//2 51//2 52//2
f  23//2 49//2 53//2
f  23//2 53//2 54//2
f  23//2 54//2 55//2
f  24//2 23//2 56//2
f  57//2 55//2 54//2
f  55//2 57//2 58//2
f  52//2 40//2 57//2
f  57//2 40//2 58//2
f  58//2 40//2 56//2
f  24//2 56//2 40//2
f  40//2 59//2 24//2
f  24//2 60//2 3//2
f  60//2 24//2 59//2
f  59//2 40//2 1//2
f  59//2 1//2 61//2
f  60//2 59//2 62//2
f  61//2 1//2 63//2
f  63//2 1//2 64//2
f  63//2 65//2 62//2
f  65//2 63//2 64//2
f  60//2 62//2 65//2
f  60//2 65//2 66//2
f  60//2 66//2 67//2
f  68//2 67//2 66//2
f  60//2 67//2 69//2
f  67//2 68//2 70//2
f  64//2 1//2 68//2
f  68//2 1//2 70//2
f  70//2 1//2 71//2
f  71//2 1//2 72//2
f  71//2 73//2 69//2
f  73//2 71//2 72//2
f  60//2 69//2 73//2
f  60//2 73//2 74//2
f  60//2 74//2 75//2
f  3//2 60//2 76//2
f  77//2 75//2 74//2
f  75//2 77//2 78//2
f  72//2 1//2 77//2
f  77//2 1//2 78//2
f  78//2 1//2 76//2
f  3//2 76//2 1//2
f  16//3 79//3 80//3
f  79//3 16//3 13//3
f  80//3 40//3 16//3
f  40//3 80//3 81//3
f  81//3 1//3 40//3
f  1//3 81//3 6//3
f  82//2 83//2 79//2
f  83//2 82//2 84//2
f  83//2 84//2 85//2
f  86//2 79//2 83//2
f  86//2 83//2 87//2
f  79//2 86//2 80//2
f  86//2 87//2 88//2
f  86//2 88//2 89//2
f  86//2 89//2 90//2
f  80//2 86//2 91//2
f  92//2 88//2 87//2
f  88//2 92//2 93//2
f  85//2 84//2 92//2
f  92//2 84//2 93//2
f  93//2 84//2 94//2
f  94//2 84//2 95//2
f  94//2 90//2 89//2
f  90//2 94//2 95//2
f  95//2 84//2 91//2
f  80//2 91//2 84//2
f  84//2 96//2 80//2
f  96//2 84//2 97//2
f  96//2 97//2 98//2
f  99//2 80//2 96//2
f  99//2 96//2 100//2
f  98//2 97//2 101//2
f  101//2 97//2 102//2
f  101//2 103//2 100//2
f  103//2 101//2 102//2
f  99//2 100//2 103//2
f  99//2 103//2 104//2
f  99//2 104//2 105//2
f  106//2 105//2 104//2
f  105//2 106//2 107//2
f  102//2 97//2 106//2
f  106//2 97//2 107//2
f  107//2 97//2 108//2
f  81//2 99//2 108//2
f  81//2 108//2 97//2
f  97//2 109//2 81//2
f  81//2 110//2 6//2
f  110//2 81//2 109//2
f  80//2 99//2 81//2
f  109//2 97//2 5//2
f  109//2 5//2 111//2
f  110//2 109//2 112//2
f  111//2 5//2 113//2
f  113//2 5//2 114//2
f  113//2 115//2 112//2
f  115//2 113//2 114//2
f  110//2 112//2 115//2
f  110//2 115//2 116//2
f  110//2 116//2 117//2
f  118//2 117//2 116//2
f  117//2 118//2 119//2
f  114//2 5//2 118//2
f  118//2 5//2 119//2
f  119//2 5//2 120//2
f  6//2 110//2 120//2
f  6//2 120//2 5//2
f  121//4 84//4 82//4
f  84//4 121//4 122//4
f  122//4 97//4 84//4
f  97//4 122//4 123//4
f  123//4 5//4 97//4
f  5//4 123//4 7//4
f  124//2 125//2 121//2
f  125//2 124//2 126//2
f  125//2 126//2 127//2
f  128//2 121//2 125//2
f  128//2 125//2 129//2
f  121//2 128//2 122//2
f  122//2 128//2 130//2
f  122//2 130//2 126//2
f  126//2 131//2 122//2
f  122//2 132//2 123//2
f  132//2 122//2 131//2
f  133//2 126//2 130//2
f  134//2 126//2 133//2
f  135//2 134//2 133//2
f  136//2 126//2 134//2
f  134//2 135//2 137//2
f  128//2 137//2 135//2
f  128//2 138//2 137//2
f  128//2 129//2 139//2
f  128//2 139//2 140//2
f  128//2 140//2 141//2
f  128//2 141//2 142//2
f  128//2 142//2 138//2
f  143//2 138//2 142//2
f  138//2 143//2 136//2
f  144//2 126//2 143//2
f  143//2 126//2 136//2
f  145//2 126//2 144//2
f  141//2 145//2 144//2
f  145//2 141//2 140//2
f  146//2 126//2 145//2
f  147//2 126//2 146//2
f  139//2 147//2 146//2
f  147//2 139//2 129//2
f  127//2 126//2 147//2
f  131//2 126//2 148//2
f  131//2 148//2 149//2
f  132//2 131//2 150//2
f  149//2 148//2 151//2
f  151//2 148//2 152//2
f  151//2 153//2 150//2
f  153//2 151//2 152//2
f  132//2 150//2 153//2
f  132//2 153//2 154//2
f  132//2 154//2 155//2
f  156//2 155//2 154//2
f  132//2 155//2 157//2
f  155//2 156//2 158//2
f  152//2 148//2 156//2
f  156//2 148//2 158//2
f  158//2 148//2 159//2
f  159//2 148//2 160//2
f  159//2 161//2 157//2
f  161//2 159//2 160//2
f  132//2 157//2 161//2
f  132//2 161//2 162//2
f  132//2 162//2 163//2
f  123//2 132//2 164//2
f  165//2 163//2 162//2
f  163//2 165//2 166//2
f  160//2 148//2 165//2
f  165//2 148//2 166//2
f  166//2 148//2 164//2
f  123//2 164//2 148//2
f  148//2 167//2 123//2
f  123//2 168//2 7//2
f  168//2 123//2 167//2
f  167//2 148//2 10//2
f  167//2 10//2 169//2
f  168//2 167//2 170//2
f  169//2 10//2 171//2
f  171//2 10//2 172//2
f  171//2 173//2 170//2
f  173//2 171//2 172//2
f  168//2 170//2 173//2
f  168//2 173//2 174//2
f  168//2 174//2 175//2
f  176//2 175//2 174//2
f  168//2 175//2 177//2
f  175//2 176//2 178//2
f  172//2 10//2 176//2
f  176//2 10//2 178//2
f  178//2 10//2 179//2
f  179//2 10//2 180//2
f  179//2 181//2 177//2
f  181//2 179//2 180//2
f  168//2 177//2 181//2
f  168//2 181//2 182//2
f  168//2 182//2 183//2
f  7//2 168//2 184//2
f  185//2 183//2 182//2
f  183//2 185//2 186//2
f  180//2 10//2 185//2
f  185//2 10//2 186//2
f  186//2 10//2 184//2
f  7//2 184//2 10//2
f  187//4 126//4 124//4
f  126//4 187//4 188//4
f  188//4 148//4 126//4
f  148//4 188//4 189//4
f  189//4 10//4 148//4
f  10//4 189//4 11//4
f  190//5 191//5 187//5
f  191//5 190//5 192//5
f  191//5 192//5 193//5
f  194//5 187//5 191//5
f  194//5 191//5 195//5
f  187//5 194//5 188//5
f  188//5 194//5 196//5
f  188//5 196//5 192//5
f  192//5 197//5 188//5
f  188//5 198//5 189//5
f  198//5 188//5 197//5
f  199//5 192//5 196//5
f  200//5 192//5 199//5
f  201//5 200//5 199//5
f  202//5 192//5 200//5
f  200//5 201//5 203//5
f  194//5 203//5 201//5
f  194//5 204//5 203//5
f  194//5 195//5 205//5
f  194//5 205//5 206//5
f  194//5 206//5 207//5
f  194//5 207//5 208//5
f  194//5 208//5 204//5
f  209//5 204//5 208//5
f  204//5 209//5 202//5
f  210//5 192//5 209//5
f  209//5 192//5 202//5
f  211//5 192//5 210//5
f  207//5 211//5 210//5
f  211//5 207//5 206//5
f  212//5 192//5 211//5
f  213//5 192//5 212//5
f  205//5 213//5 212//5
f  213//5 205//5 195//5
f  193//5 192//5 213//5
f  197//5 192//5 214//5
f  197//5 214//5 215//5
f  198//5 197//5 216//5
f  215//5 214//5 217//5
f  217//5 214//5 218//5
f  217//5 219//5 216//5
f  219//5 217//5 218//5
f  198//5 216//5 219//5
f  198//5 219//5 220//5
f  198//5 220//5 221//5
f  222//5 221//5 220//5
f  198//5 221//5 223//5
f  221//5 222//5 224//5
f  218//5 214//5 222//5
f  222//5 214//5 224//5
f  224//5 214//5 225//5
f  225//5 214//5 226//5
f  225//5 227//5 223//5
f  227//5 225//5 226//5
f  198//5 223//5 227//5
f  198//5 227//5 228//5
f  198//5 228//5 229//5
f  189//5 198//5 230//5
f  231//5 229//5 228//5
f  229//5 231//5 232//5
f  226//5 214//5 231//5
f  231//5 214//5 232//5
f  232//5 214//5 230//5
f  189//5 230//5 214//5
f  214//5 233//5 189//5
f  189//5 234//5 11//5
f  234//5 189//5 233//5
f  233//5 214//5 8//5
f  233//5 8//5 235//5
f  234//5 233//5 236//5
f  235//5 8//5 237//5
f  237//5 8//5 238//5
f  237//5 239//5 236//5
f  239//5 237//5 238//5
f  234//5 236//5 239//5
f  234//5 239//5 240//5
f  234//5 240//5 241//5
f  242//5 241//5 240//5
f  234//5 241//5 243//5
f  241//5 242//5 244//5
f  238//5 8//5 242//5
f  242//5 8//5 244//5
f  244//5 8//5 245//5
f  245//5 8//5 246//5
f  245//5 247//5 243//5
f  247//5 245//5 246//5
f  234//5 243//5 247//5
f  234//5 247//5 248//5
f  234//5 248//5 249//5
f  11//5 234//5 250//5
f  251//5 249//5 248//5
f  249//5 251//5 252//5
f  246//5 8//5 251//5
f  251//5 8//5 252//5
f  252//5 8//5 250//5
f  11//5 250//5 8//5
f  253//5 254//5 255//5
f  254//5 253//5 256//5
f  254//5 256//5 257//5
f  258//5 255//5 254//5
f  258//5 254//5 259//5
f  255//5 258//5 260//5
f  260//5 258//5 261//5
f  260//5 261//5 256//5
f  256//5 262//5 260//5
f  260//5 263//5 264//5
f  263//5 260//5 262//5
f  265//5 256//5 261//5
f  266//5 256//5 265//5
f  267//5 266//5 265//5
f  268//5 256//5 266//5
f  266//5 267//5 269//5
f  258//5 269//5 267//5
f  258//5 270//5 269//5
f  258//5 259//5 271//5
f  258//5 271//5 272//5
f  258//5 272//5 273//5
f  258//5 273//5 274//5
f  258//5 274//5 270//5
f  275//5 270//5 274//5
f  270//5 275//5 268//5
f  276//5 256//5 275//5
f  275//5 256//5 268//5
f  277//5 256//5 276//5
f  273//5 277//5 276//5
f  277//5 273//5 272//5
f  278//5 256//5 277//5
f  279//5 256//5 278//5
f  271//5 279//5 278//5
f  279//5 271//5 259//5
f  257//5 256//5 279//5
f  262//5 256//5 280//5
f  262//5 280//5 281//5
f  263//5 262//5 282//5
f  281//5 280//5 283//5
f  283//5 280//5 284//5
f  283//5 285//5 282//5
f  285//5 283//5 284//5
f  263//5 282//5 285//5
f  263//5 285//5 286//5
f  263//5 286//5 287//5
f  288//5 287//5 286//5
f  263//5 287//5 289//5
f  287//5 288//5 290//5
f  284//5 280//5 288//5
f  288//5 280//5 290//5
f  290//5 280//5 291//5
f  291//5 280//5 292//5
f  291//5 293//5 289//5
f  293//5 291//5 292//5
f  263//5 289//5 293//5
f  263//5 293//5 294//5
f  263//5 294//5 295//5
f  264//5 263//5 296//5
f  297//5 295//5 294//5
f  295//5 297//5 298//5
f  292//5 280//5 297//5
f  297//5 280//5 298//5
f  298//5 280//5 296//5
f  264//5 296//5 280//5
f  280//5 299//5 264//5
f  264//5 300//5 4//5
f  300//5 264//5 299//5
f  299//5 280//5 2//5
f  299//5 2//5 301//5
f  300//5 299//5 302//5
f  301//5 2//5 303//5
f  303//5 2//5 304//5
f  303//5 305//5 302//5
f  305//5 303//5 304//5
f  300//5 302//5 305//5
f  300//5 305//5 306//5
f  300//5 306//5 307//5
f  308//5 307//5 306//5
f  300//5 307//5 309//5
f  307//5 308//5 310//5
f  304//5 2//5 308//5
f  308//5 2//5 310//5
f  310//5 2//5 311//5
f  311//5 2//5 312//5
f  311//5 313//5 309//5
f  313//5 311//5 312//5
f  300//5 309//5 313//5
f  300//5 313//5 314//5
f  300//5 314//5 315//5
f  4//5 300//5 316//5
f  317//5 315//5 314//5
f  315//5 317//5 318//5
f  312//5 2//5 317//5
f  317//5 2//5 318//5
f  318//5 2//5 316//5
f  4//5 316//5 2//5
f  319//6 12//6 9//6
f  320//7 1//7 6//7
f  1//7 320//7 321//7
f  4//7 1//7 321//7
f  319//8 4//7 321//7
f  4//7 319//8 9//8
f  320//9 6//9 5//9
f  7//10 322//10 321//10
f  322//10 7//10 10//10
f  323//11 1//11 321//10
f  1//11 323//11 3//11
f  11//12 322//12 10//12
f  2//13 3//13 323//13
f  323//14 4//14 2//14
f  4//14 323//14 321//14
f  322//14 8//14 321//14
f  8//14 322//14 11//14
f  8//15 321//15 7//15
f  8//15 319//16 321//15
f  319//16 8//15 12//16
f  320//17 7//15 321//15
f  7//15 320//17 5//17
f  7//18 1//18 321//18
f  8//19 321//19 4//19
f  324//5 325//5 326//5
f  325//5 324//5 327//5
f  328//5 329//5 324//5
f  328//5 324//5 330//5
f  330//5 324//5 331//5
f  331//5 324//5 332//5
f  332//5 324//5 333//5
f  333//5 324//5 334//5
f  334//5 324//5 335//5
f  326//5 335//5 324//5
f  329//5 328//5 336//5
f  336//5 337//5 326//5
f  337//5 336//5 328//5
f  337//5 328//5 338//5
f  337//5 338//5 339//5
f  337//5 339//5 340//5
f  337//5 340//5 341//5
f  326//5 337//5 335//5
f  331//5 339//5 338//5
f  339//5 331//5 332//5
f  326//5 342//5 343//5
f  342//5 326//5 325//5
f  343//5 342//5 344//5
f  343//5 344//5 327//5
f  327//5 345//5 343//5
f  343//5 346//5 12//5
f  346//5 343//5 345//5
f  347//5 327//5 344//5
f  348//5 327//5 347//5
f  349//5 348//5 347//5
f  350//5 327//5 348//5
f  348//5 349//5 351//5
f  342//5 351//5 349//5
f  342//5 352//5 351//5
f  342//5 325//5 353//5
f  342//5 353//5 352//5
f  354//5 352//5 353//5
f  352//5 354//5 350//5
f  354//5 327//5 350//5
f  355//5 327//5 354//5
f  325//5 327//5 355//5
f  345//5 327//5 9//5
f  345//5 9//5 356//5
f  346//5 345//5 357//5
f  356//5 9//5 358//5
f  358//5 9//5 359//5
f  358//5 360//5 357//5
f  360//5 358//5 359//5
f  346//5 357//5 360//5
f  346//5 360//5 361//5
f  346//5 361//5 362//5
f  12//5 346//5 363//5
f  364//5 362//5 361//5
f  362//5 364//5 365//5
f  359//5 9//5 364//5
f  364//5 9//5 365//5
f  365//5 9//5 363//5
f  12//5 363//5 9//5
f  333//5 341//5 340//5
f  341//5 333//5 334//5
f  326//4 214//4 192//4
f  214//4 326//4 343//4
f  192//4 336//4 326//4
f  343//4 8//4 214//4
f  8//4 343//4 12//4
f  336//4 192//4 190//4
f  327//3 260//3 264//3
f  260//3 327//3 324//3
f  264//3 9//3 327//3
f  324//3 255//3 260//3
f  255//3 324//3 329//3
f  9//3 264//3 4//3
f  256//3 366//3 367//3
f  366//3 256//3 253//3
f  367//3 280//3 256//3
f  368//3 369//3 367//3
f  280//3 367//3 369//3
f  369//3 2//3 280//3
f  2//3 24//3 3//3
f  24//3 2//3 370//3
f  370//3 2//3 369//3
f  370//3 20//3 24//3
f  370//3 371//3 372//3
f  371//3 370//3 369//3
f  20//3 370//3 372//3
f  372//3 15//3 20//3
f  373//3 372//3 371//3
f  15//3 372//3 374//3
f  371//3 369//3 375//3
f  375//3 373//3 371//3
f  373//3 375//3 376//3
f  375//3 369//3 377//3
f  375//3 378//3 376//3
f  378//3 375//3 377//3
f  376//3 379//3 380//3
f  379//3 376//3 378//3
f  378//3 377//3 381//3
f  381//3 377//3 382//3
f  380//3 379//3 382//3
f  380//3 382//3 377//3
f  377//3 369//3 383//3
f  377//3 384//3 380//3
f  384//3 377//3 383//3
f  380//3 385//3 386//3
f  385//3 380//3 384//3
f  384//3 383//3 387//3
f  387//3 383//3 388//3
f  383//3 369//3 389//3
f  386//3 388//3 383//3
f  389//3 386//3 383//3
f  386//3 385//3 388//3
f  386//3 389//3 368//3
f  389//3 369//3 368//3
f  372//2 390//2 374//2
f  390//2 372//2 391//2
f  370//2 391//2 372//2
f  391//2 370//2 392//2
f  393//5 367//5 394//5
f  367//5 393//5 369//5
f  366//5 394//5 367//5
f  394//5 366//5 395//5
f  126//1 192//1 122//1
f  192//1 126//1 188//1
f  326//1 122//1 192//1
f  326//1 84//1 122//1
f  324//1 84//1 326//1
f  84//1 16//1 80//1
f  16//1 84//1 260//1
f  260//1 84//1 324//1
f  256//1 16//1 260//1
f  367//1 16//1 256//1
f  368//1 16//1 367//1
f  386//1 16//1 368//1
f  396//1 373//1 368//1
f  368//1 373//1 376//1
f  368//1 376//1 380//1
f  368//1 380//1 386//1
f  380//1 16//1 386//1
f  376//1 16//1 380//1
f  373//1 16//1 376//1
f  372//1 16//1 373//1
f  373//1 397//1 398//1
f  397//1 373//1 399//1
f  399//1 373//1 396//1
f  16//1 372//1 20//1
f  370//1 393//1 392//1
f  393//1 370//1 369//1
f  40//1 370//1 24//1
f  370//1 40//1 369//1
f  369//1 40//1 280//1
f  97//1 40//1 81//1
f  40//1 97//1 264//1
f  280//1 40//1 264//1
f  264//1 97//1 327//1
f  327//1 97//1 343//1
f  343//1 97//1 123//1
f  343//1 123//1 214//1
f  148//1 214//1 123//1
f  214//1 148//1 189//1
f  399//3 400//3 397//3
f  400//3 399//3 401//3
f  396//3 401//3 399//3
f  390//3 398//3 400//3
f  400//3 398//3 397//3
f  391//3 402//3 390//3
f  398//3 390//3 402//3
f  392//3 402//3 391//3
f  402//3 392//3 393//3
f  402//3 393//3 403//3
f  403//3 393//3 396//3
f  395//3 396//3 393//3
f  395//3 393//3 394//3
f  401//3 396//3 395//3
f  389//2 396//2 368//2
f  396//2 389//2 403//2
f  389//20 402//20 403//20
f  402//20 389//20 371//20
f  371//20 389//20 383//20
f  371//20 383//20 377//20
f  371//20 377//20 375//20
f  402//5 373//5 398//5
f  373//5 402//5 371//5
f  187//20 121//20 190//20
f  121//20 187//20 124//20
f  82//20 190//20 121//20
f  82//20 336//20 190//20
f  79//20 336//20 82//20
f  336//20 255//20 329//20
f  255//20 336//20 13//20
f  13//20 336//20 79//20
f  255//20 366//20 253//20
f  366//20 255//20 374//20
f  374//20 255//20 15//20
f  15//20 255//20 13//20
f  366//20 401//20 395//20
f  401//20 366//20 400//20
f  400//20 366//20 390//20
f  390//20 366//20 374//20
f  401//20 404//20 405//20
f  404//20 401//20 400//20
f  399//5 401//5 405//5
f  397//2 404//2 400//2
f  399//21 404//21 397//21
f  404//21 399//21 405//21

